<svg width="69" height="69" viewBox="0 0 69 69" fill="none" xmlns="http://www.w3.org/2000/svg">
<path d="M5.75 20.125L29.2241 36.5569C31.125 37.8875 32.0754 38.5528 33.1093 38.8105C34.0224 39.0381 34.9776 39.0381 35.8907 38.8105C36.9246 38.5528 37.875 37.8875 39.7759 36.5569L63.25 20.125M19.55 57.5H49.45C54.2805 57.5 56.6957 57.5 58.5407 56.5599C60.1636 55.733 61.483 54.4136 62.3099 52.7907C63.25 50.9457 63.25 48.5305 63.25 43.7V25.3C63.25 20.4695 63.25 18.0543 62.3099 16.2093C61.483 14.5864 60.1636 13.267 58.5407 12.4401C56.6957 11.5 54.2805 11.5 49.45 11.5H19.55C14.7195 11.5 12.3043 11.5 10.4593 12.4401C8.83643 13.267 7.51698 14.5864 6.69007 16.2093C5.75 18.0543 5.75 20.4695 5.75 25.3V43.7C5.75 48.5305 5.75 50.9457 6.69007 52.7907C7.51698 54.4136 8.83643 55.733 10.4593 56.5599C12.3043 57.5 14.7195 57.5 19.55 57.5Z" stroke="#141000" stroke-width="5" stroke-linecap="round" stroke-linejoin="round"/>
</svg>
